# xmcd
#
# Track frame offsets:
#	150
#	15677
#	26026
#	40900
#
# Disc length: 744 seconds
#
# Revision: 0
# Processed by: cddbd v1.5.2PL0 Copyright (c) Steve Scherf et al.
# Submitted via: EZCDAudioConverter 7.0.0.1
#
DISCID=2902e604
DTITLE=Willie en de Billies - Ik dacht dat het mocht van jou
DYEAR=2017
DGENRE=Pop
TTITLE0=Ik weet alleen maar hoe je hond heet
TTITLE1=Waarom nou
TTITLE2=Plankgas(Kerst met jou)
TTITLE3=Kleine jongen
EXTD=
EXTT0=
EXTT1=
EXTT2=
EXTT3=
PLAYORDER=
